<svg width="25" height="24" viewBox="0 0 25 24" fill="#054B67" xmlns="http://www.w3.org/2000/svg">
  <g id="agriculture">
    <g id="Vector">
      <path
        d="M20.125 11.97C21.055 11.97 21.905 12.25 22.625 12.73V7.96999C22.625 6.86999 21.725 5.96999 20.625 5.96999H14.335L13.275 4.90999L14.335 3.84999C14.535 3.64999 14.535 3.33999 14.335 3.13999C14.135 2.93999 13.825 2.93999 13.625 3.13999L10.795 5.96999C10.595 6.16999 10.595 6.47999 10.795 6.67999C10.995 6.87999 11.305 6.87999 11.505 6.67999L12.565 5.61999L13.625 6.67999V8.96999C13.625 10.07 12.725 10.97 11.625 10.97H11.085C12.035 12.03 12.625 13.43 12.625 14.97C12.625 15.31 12.585 15.64 12.535 15.97H15.675C15.925 13.73 17.815 11.97 20.125 11.97Z" />
      <path
        d="M20.125 12.97C18.195 12.97 16.625 14.54 16.625 16.47C16.625 18.4 18.195 19.97 20.125 19.97C22.055 19.97 23.625 18.4 23.625 16.47C23.625 14.54 22.055 12.97 20.125 12.97ZM20.125 17.97C19.295 17.97 18.625 17.3 18.625 16.47C18.625 15.64 19.295 14.97 20.125 14.97C20.955 14.97 21.625 15.64 21.625 16.47C21.625 17.3 20.955 17.97 20.125 17.97Z" />
      <path
        d="M4.625 8.96997H9.625C9.625 7.86997 8.725 6.96997 7.625 6.96997H4.625C4.075 6.96997 3.625 7.41997 3.625 7.96997C3.625 8.52997 4.075 8.96997 4.625 8.96997Z" />
      <path
        d="M10.455 13.79L10.275 13.32L11.205 12.97C10.745 11.91 9.925 11.06 8.895 10.54L8.495 11.43L8.035 11.22L8.435 10.32C7.885 10.11 7.265 9.96997 6.625 9.96997C6.095 9.96997 5.585 10.08 5.105 10.23L5.445 11.14L4.975 11.32L4.625 10.4C3.565 10.86 2.715 11.68 2.195 12.71L3.085 13.11L2.875 13.57L1.975 13.17C1.755 13.72 1.625 14.33 1.625 14.97C1.625 15.5 1.735 16.01 1.885 16.49L2.795 16.15L2.975 16.62L2.045 16.97C2.505 18.03 3.325 18.88 4.355 19.4L4.755 18.51L5.215 18.72L4.815 19.62C5.385 19.84 5.995 19.97 6.635 19.97C7.165 19.97 7.675 19.86 8.155 19.71L7.805 18.8L8.275 18.62L8.625 19.55C9.685 19.09 10.535 18.27 11.055 17.24L10.165 16.84L10.375 16.38L11.275 16.78C11.495 16.21 11.625 15.6 11.625 14.96C11.625 14.43 11.515 13.92 11.365 13.44L10.455 13.79ZM7.775 17.75C6.245 18.38 4.485 17.66 3.855 16.13C3.225 14.6 3.945 12.84 5.475 12.21C7.005 11.58 8.765 12.3 9.395 13.83C10.035 15.36 9.305 17.11 7.775 17.75Z" />
    </g>
  </g>
</svg>
