<svg width="25" height="24" viewBox="0 0 25 24" fill="#054B67" xmlns="http://www.w3.org/2000/svg">
  <g id="grass">
    <path
      id="Vector"
      d="M16.015 11.02C16.565 9.55004 17.445 8.24004 18.575 7.19004C18.955 6.83004 18.615 6.19004 18.115 6.34004C14.795 7.32004 12.365 10.39 12.375 14.03C13.325 12.75 14.575 11.72 16.015 11.02ZM11.795 8.85004C11.195 7.29004 10.165 5.94004 8.835 4.98004C8.415 4.68004 7.875 5.17004 8.115 5.63004C8.915 7.15004 9.375 8.88004 9.375 10.71C9.375 10.92 9.345 11.12 9.335 11.32C9.765 11.56 10.165 11.84 10.555 12.14C10.765 10.96 11.205 9.85004 11.795 8.85004ZM12.375 20H3.375C2.825 20 2.375 19.55 2.375 19C2.375 18.45 2.825 18 3.375 18H8.125C7.555 15.81 6.085 13.98 4.125 12.94C3.965 12.86 3.865 12.69 3.865 12.5C3.865 12.23 4.085 12.01 4.355 12C4.365 12 4.375 12 4.375 12C8.795 12 12.375 15.58 12.375 20ZM20.635 12.94C18.675 13.98 17.195 15.81 16.635 18H21.375C21.925 18 22.375 18.45 22.375 19C22.375 19.55 21.925 20 21.375 20H16.375H14.375C14.375 19.32 14.305 18.65 14.175 18C14.025 17.28 13.795 16.58 13.505 15.93C14.895 13.58 17.445 12 20.375 12C20.385 12 20.395 12 20.395 12C20.665 12 20.885 12.23 20.885 12.5C20.895 12.69 20.785 12.85 20.635 12.94Z" />
  </g>
</svg>
