<svg width="16" height="16" viewBox="0 0 16 16" fill="#33B3E8" xmlns="http://www.w3.org/2000/svg">
  <g id="add_circle">
    <path
      id="Vector"
      d="M8 1.33337C4.32 1.33337 1.33333 4.32004 1.33333 8.00004C1.33333 11.68 4.32 14.6667 8 14.6667C11.68 14.6667 14.6667 11.68 14.6667 8.00004C14.6667 4.32004 11.68 1.33337 8 1.33337ZM10.6667 8.66671H8.66666V10.6667C8.66666 11.0334 8.36666 11.3334 8 11.3334C7.63333 11.3334 7.33333 11.0334 7.33333 10.6667V8.66671H5.33333C4.96666 8.66671 4.66666 8.36671 4.66666 8.00004C4.66666 7.63337 4.96666 7.33337 5.33333 7.33337H7.33333V5.33337C7.33333 4.96671 7.63333 4.66671 8 4.66671C8.36666 4.66671 8.66666 4.96671 8.66666 5.33337V7.33337H10.6667C11.0333 7.33337 11.3333 7.63337 11.3333 8.00004C11.3333 8.36671 11.0333 8.66671 10.6667 8.66671Z" />
  </g>
</svg>
