<svg width="16" height="16" viewBox="0 0 16 16" fill="none" xmlns="http://www.w3.org/2000/svg">
  <g id="camera_alt">
    <g id="Vector">
      <path
        d="M13.3333 2.66671H11.22L10.3933 1.76671C10.1467 1.49337 9.78666 1.33337 9.41333 1.33337H6.58666C6.21333 1.33337 5.85333 1.49337 5.59999 1.76671L4.78 2.66671H2.66666C1.93333 2.66671 1.33333 3.26671 1.33333 4.00004V12C1.33333 12.7334 1.93333 13.3334 2.66666 13.3334H13.3333C14.0667 13.3334 14.6667 12.7334 14.6667 12V4.00004C14.6667 3.26671 14.0667 2.66671 13.3333 2.66671ZM8 11.3334C6.16 11.3334 4.66666 9.84004 4.66666 8.00004C4.66666 6.16004 6.16 4.66671 8 4.66671C9.84 4.66671 11.3333 6.16004 11.3333 8.00004C11.3333 9.84004 9.84 11.3334 8 11.3334Z"
        fill="#FEFEFE" />
      <path
        d="M8 10C9.10456 10 10 9.10461 10 8.00004C10 6.89547 9.10456 6.00004 8 6.00004C6.89543 6.00004 6 6.89547 6 8.00004C6 9.10461 6.89543 10 8 10Z"
        fill="#FEFEFE" />
    </g>
  </g>
</svg>
