<svg width="15" height="15" viewBox="0 0 15 15" fill="none" xmlns="http://www.w3.org/2000/svg">
  <path
    id="Vector"
    d="M6.83334 4.16659H8.16668V5.49992H6.83334V4.16659ZM7.50001 10.8333C7.86668 10.8333 8.16668 10.5333 8.16668 10.1666V7.49992C8.16668 7.13325 7.86668 6.83325 7.50001 6.83325C7.13334 6.83325 6.83334 7.13325 6.83334 7.49992V10.1666C6.83334 10.5333 7.13334 10.8333 7.50001 10.8333ZM7.50001 0.833252C3.82001 0.833252 0.833344 3.81992 0.833344 7.49992C0.833344 11.1799 3.82001 14.1666 7.50001 14.1666C11.18 14.1666 14.1667 11.1799 14.1667 7.49992C14.1667 3.81992 11.18 0.833252 7.50001 0.833252ZM7.50001 12.8333C4.56001 12.8333 2.16668 10.4399 2.16668 7.49992C2.16668 4.55992 4.56001 2.16659 7.50001 2.16659C10.44 2.16659 12.8333 4.55992 12.8333 7.49992C12.8333 10.4399 10.44 12.8333 7.50001 12.8333Z"
    fill="#6E7981" />
</svg>
