<svg width="16" height="16" viewBox="0 0 16 16" fill="none" xmlns="http://www.w3.org/2000/svg">
  <g id="upload">
    <path
      id="Vector"
      d="M6.66666 10.6667H9.33333C9.7 10.6667 10 10.3667 10 10V6.66667H11.06C11.6533 6.66667 11.9533 5.94667 11.5333 5.52667L8.47333 2.46667C8.21333 2.20667 7.79333 2.20667 7.53333 2.46667L4.47333 5.52667C4.05333 5.94667 4.34666 6.66667 4.93999 6.66667H5.99999V10C5.99999 10.3667 6.29999 10.6667 6.66666 10.6667ZM3.99999 12H12C12.3667 12 12.6667 12.3 12.6667 12.6667C12.6667 13.0333 12.3667 13.3333 12 13.3333H3.99999C3.63333 13.3333 3.33333 13.0333 3.33333 12.6667C3.33333 12.3 3.63333 12 3.99999 12Z"
      fill="#A6B1B9" />
  </g>
</svg>
