<svg width="16" height="16" viewBox="0 0 16 16" fill="none" xmlns="http://www.w3.org/2000/svg">
  <g id="visibility">
    <path
      id="Vector"
      d="M8.00002 2.66663C4.66669 2.66663 1.82002 4.73996 0.666687 7.66663C1.82002 10.5933 4.66669 12.6666 8.00002 12.6666C11.3334 12.6666 14.18 10.5933 15.3334 7.66663C14.18 4.73996 11.3334 2.66663 8.00002 2.66663ZM8.00002 11C6.16002 11 4.66669 9.50663 4.66669 7.66663C4.66669 5.82663 6.16002 4.33329 8.00002 4.33329C9.84002 4.33329 11.3334 5.82663 11.3334 7.66663C11.3334 9.50663 9.84002 11 8.00002 11ZM8.00002 5.66663C6.89335 5.66663 6.00002 6.55996 6.00002 7.66663C6.00002 8.77329 6.89335 9.66663 8.00002 9.66663C9.10669 9.66663 10 8.77329 10 7.66663C10 6.55996 9.10669 5.66663 8.00002 5.66663Z"
      fill="#33B3E8" />
  </g>
</svg>
