<svg width="20" height="17" viewBox="0 0 20 17" fill="none" xmlns="http://www.w3.org/2000/svg">
  <path
    d="M10.0001 1.98999L17.5301 15H2.47012L10.0001 1.98999ZM0.740121 14C-0.0298788 15.33 0.930121 17 2.47012 17H17.5301C19.0701 17 20.0301 15.33 19.2601 14L11.7301 0.989993C10.9601 -0.340007 9.04012 -0.340007 8.27012 0.989993L0.740121 14ZM9.00012 6.99999V8.99999C9.00012 9.54999 9.45012 9.99999 10.0001 9.99999C10.5501 9.99999 11.0001 9.54999 11.0001 8.99999V6.99999C11.0001 6.44999 10.5501 5.99999 10.0001 5.99999C9.45012 5.99999 9.00012 6.44999 9.00012 6.99999ZM9.00012 12H11.0001V14H9.00012V12Z"
    fill="#FEFEFE" />
</svg>
