<svg width="12" height="12" viewBox="0 0 12 12" xmlns="http://www.w3.org/2000/svg">
  <path
    d="M11.8067 3.32L8.68667 0.2C8.56 0.0733333 8.38667 0 8.21333 0H3.78667C3.61333 0 3.44 0.0733333 3.32 0.193333L0.193333 3.32C0.0733333 3.44 0 3.61333 0 3.78667V8.20667C0 8.38667 0.0733333 8.55333 0.193333 8.68L3.31333 11.8C3.44 11.9267 3.61333 12 3.78667 12H8.20667C8.38667 12 8.55333 11.9267 8.68 11.8067L11.8 8.68667C11.9267 8.56 11.9933 8.39333 11.9933 8.21333V3.78667C12 3.61333 11.9267 3.44 11.8067 3.32ZM10.6667 7.93333L7.93333 10.6667H4.06667L1.33333 7.93333V4.06667L4.06667 1.33333H7.93333L10.6667 4.06667V7.93333Z" />
  <path
    d="M6 2.66667C5.63333 2.66667 5.33333 2.96667 5.33333 3.33333V6.66667C5.33333 7.03333 5.63333 7.33333 6 7.33333C6.36667 7.33333 6.66667 7.03333 6.66667 6.66667V3.33333C6.66667 2.96667 6.36667 2.66667 6 2.66667Z" />
  <path
    d="M6 9.33333C6.36819 9.33333 6.66667 9.03486 6.66667 8.66667C6.66667 8.29848 6.36819 8 6 8C5.63181 8 5.33333 8.29848 5.33333 8.66667C5.33333 9.03486 5.63181 9.33333 6 9.33333Z" />
</svg>
