<svg width="16" height="16" viewBox="0 0 16 16" fill="none" xmlns="http://www.w3.org/2000/svg">
  <g id="more_vert">
    <path
      id="Vector"
      d="M8.00001 5.33329C8.73334 5.33329 9.33334 4.73329 9.33334 3.99996C9.33334 3.26663 8.73334 2.66663 8.00001 2.66663C7.26667 2.66663 6.66667 3.26663 6.66667 3.99996C6.66667 4.73329 7.26667 5.33329 8.00001 5.33329ZM8.00001 6.66663C7.26667 6.66663 6.66667 7.26663 6.66667 7.99996C6.66667 8.73329 7.26667 9.33329 8.00001 9.33329C8.73334 9.33329 9.33334 8.73329 9.33334 7.99996C9.33334 7.26663 8.73334 6.66663 8.00001 6.66663ZM8.00001 10.6666C7.26667 10.6666 6.66667 11.2666 6.66667 12C6.66667 12.7333 7.26667 13.3333 8.00001 13.3333C8.73334 13.3333 9.33334 12.7333 9.33334 12C9.33334 11.2666 8.73334 10.6666 8.00001 10.6666Z"
      fill="#33B3E8" />
  </g>
</svg>
