<svg width="24" height="24" viewBox="0 0 24 24" fill="none" xmlns="http://www.w3.org/2000/svg">
  <g id="agriculture">
    <g id="Vector">
      <path
        d="M19.5 11.9702C20.43 11.9702 21.28 12.2502 22 12.7302V7.97023C22 6.87023 21.1 5.97023 20 5.97023H13.71L12.65 4.91023L13.71 3.85023C13.91 3.65023 13.91 3.34023 13.71 3.14023C13.51 2.94023 13.2 2.94023 13 3.14023L10.17 5.97023C9.97002 6.17023 9.97002 6.48023 10.17 6.68023C10.37 6.88023 10.68 6.88023 10.88 6.68023L11.94 5.62023L13 6.68023V8.97023C13 10.0702 12.1 10.9702 11 10.9702H10.46C11.41 12.0302 12 13.4302 12 14.9702C12 15.3102 11.96 15.6402 11.91 15.9702H15.05C15.3 13.7302 17.19 11.9702 19.5 11.9702Z"
        fill="#054B67" />
      <path
        d="M19.5 12.9702C17.57 12.9702 16 14.5402 16 16.4702C16 18.4002 17.57 19.9702 19.5 19.9702C21.43 19.9702 23 18.4002 23 16.4702C23 14.5402 21.43 12.9702 19.5 12.9702ZM19.5 17.9702C18.67 17.9702 18 17.3002 18 16.4702C18 15.6402 18.67 14.9702 19.5 14.9702C20.33 14.9702 21 15.6402 21 16.4702C21 17.3002 20.33 17.9702 19.5 17.9702Z"
        fill="#054B67" />
      <path
        d="M4 8.97022H9C9 7.87022 8.1 6.97021 7 6.97021H4C3.45 6.97021 3 7.42021 3 7.97021C3 8.53021 3.45 8.97022 4 8.97022Z"
        fill="#054B67" />
      <path
        d="M9.83 13.7902L9.65 13.3202L10.58 12.9702C10.12 11.9102 9.3 11.0602 8.27 10.5402L7.87 11.4302L7.41 11.2202L7.81 10.3202C7.26 10.1102 6.64 9.97021 6 9.97021C5.47 9.97021 4.96 10.0802 4.48 10.2302L4.82 11.1402L4.35 11.3202L4 10.4002C2.94 10.8602 2.09 11.6802 1.57 12.7102L2.46 13.1102L2.25 13.5702L1.35 13.1702C1.13 13.7202 1 14.3302 1 14.9702C1 15.5002 1.11 16.0102 1.26 16.4902L2.17 16.1502L2.35 16.6202L1.42 16.9702C1.88 18.0302 2.7 18.8802 3.73 19.4002L4.13 18.5102L4.59 18.7202L4.19 19.6202C4.76 19.8402 5.37 19.9702 6.01 19.9702C6.54 19.9702 7.05 19.8602 7.53 19.7102L7.18 18.8002L7.65 18.6202L8 19.5502C9.06 19.0902 9.91 18.2702 10.43 17.2402L9.54 16.8402L9.75 16.3802L10.65 16.7802C10.87 16.2102 11 15.6002 11 14.9602C11 14.4302 10.89 13.9202 10.74 13.4402L9.83 13.7902ZM7.15 17.7502C5.62 18.3802 3.86 17.6602 3.23 16.1302C2.6 14.6002 3.32 12.8402 4.85 12.2102C6.38 11.5802 8.14 12.3002 8.77 13.8302C9.41 15.3602 8.68 17.1102 7.15 17.7502Z"
        fill="#054B67" />
    </g>
  </g>
</svg>
