<svg width="24" height="24" viewBox="0 0 24 24" fill="none" xmlns="http://www.w3.org/2000/svg">
  <g id="Navigation / Menu / logout">
    <g id="Vector">
      <path
        d="M4 5L11 5C11.55 5 12 4.55 12 4C12 3.45 11.55 3 11 3L4 3C2.9 3 2 3.9 2 5L2 19C2 20.1 2.9 21 4 21L11 21C11.55 21 12 20.55 12 20C12 19.45 11.55 19 11 19L4 19L4 5Z"
        fill="#054B67" />
      <path
        d="M16.3 9.10748C15.91 8.71748 15.91 8.09748 16.3 7.70748C16.69 7.31748 17.31 7.31748 17.7 7.70748L21.29 11.3075C21.68 11.6975 21.68 12.3275 21.29 12.7175L17.7 16.3075C17.31 16.6975 16.69 16.6975 16.3 16.3075C15.91 15.9175 15.91 15.2975 16.3 14.9075L18.2 13.0075L9.00002 13.0075C8.45002 13.0075 8.00002 12.5575 8.00002 12.0075C8.00002 11.4575 8.45002 11.0075 9.00002 11.0075L18.2 11.0075L16.3 9.10748Z"
        fill="#054B67" />
    </g>
  </g>
</svg>
