<svg width="42" height="40" viewBox="0 0 42 40" fill="none" xmlns="http://www.w3.org/2000/svg">
  <g id="menu_open">
    <path
      id="Vector"
      d="M7.07878 30H25.7454C26.6788 30 27.4424 29.25 27.4424 28.3333C27.4424 27.4167 26.6788 26.6667 25.7454 26.6667H7.07878C6.14544 26.6667 5.38181 27.4167 5.38181 28.3333C5.38181 29.25 6.14544 30 7.07878 30ZM7.07878 21.6667H20.6545C21.5879 21.6667 22.3515 20.9167 22.3515 20C22.3515 19.0833 21.5879 18.3333 20.6545 18.3333H7.07878C6.14544 18.3333 5.38181 19.0833 5.38181 20C5.38181 20.9167 6.14544 21.6667 7.07878 21.6667ZM5.38181 11.6667C5.38181 12.5833 6.14544 13.3333 7.07878 13.3333H25.7454C26.6788 13.3333 27.4424 12.5833 27.4424 11.6667C27.4424 10.75 26.6788 10 25.7454 10H7.07878C6.14544 10 5.38181 10.75 5.38181 11.6667ZM34.7394 24.8L29.8521 20L34.7394 15.2C35.4012 14.55 35.4012 13.5 34.7394 12.85C34.0776 12.2 33.0085 12.2 32.3467 12.85L26.2545 18.8333C25.5927 19.4833 25.5927 20.5333 26.2545 21.1833L32.3467 27.1667C33.0085 27.8167 34.0776 27.8167 34.7394 27.1667C35.3842 26.5167 35.4012 25.45 34.7394 24.8Z"
      fill="#054B67" />
  </g>
</svg>
